#!OML:ASF G:\JayActor3\Patient Classification 1\Patient 1\Session 6\male.ASF
:FULLY-SPECIFIED
:DEGREES
739
root 21.4775 15.438 -19.4851 180.592 -65.8437 -183.943
lowerback 16.5148 -1.0101 0.959376
upperback 9.80251 -2.07462 -0.625687
thorax 1.12995 -1.34852 -0.890723
lowerneck 14.2367 4.74531 7.41803
upperneck 1.72583 6.91899 -10.7573
head -1.13841 3.70555 -4.78411
rclavicle -3.11843e-015 5.01931e-015
rhumerus -33.9821 11.308 -88.6482
rradius 122.998
rwrist 14.958
rhand 18.7693 -19.9099
rfingers 7.12502
rthumb 43.387 -44.0177
lclavicle -3.11843e-015 5.01931e-015
lhumerus -39.8688 -2.39968 85.8591
lradius 129.679
lwrist 7.65905
lhand 4.4683 35.7068
lfingers 7.12502
lthumb 29.8627 63.3188
rfemur -40.3578 6.95654 10.2788
rtibia 28.8992
rfoot -28.3306 -11.1697
rtoes -25.4735
lfemur 1.73345 15.1873 -23.4541
ltibia 34.4848
lfoot -23.7097 -6.32597
ltoes -1.60516
740
root 21.3597 15.4588 -19.5662 180.954 -66.6393 -184.321
lowerback 16.0993 -1.14389 1.04742
upperback 9.59642 -2.1969 -0.580895
thorax 1.12068 -1.38964 -0.882022
lowerneck 14.1644 4.78288 7.43581
upperneck 1.95845 6.97866 -10.7303
head -1.05262 3.72821 -4.77345
rclavicle 3.55576e-014 -3.926e-014
rhumerus -34.12 11.2656 -88.6437
rradius 122.999
rwrist 14.9354
rhand 18.8483 -19.9298
rfingers 7.12502
rthumb 43.4607 -44.0109
lclavicle 3.55576e-014 -3.926e-014
lhumerus -40.0028 -2.20987 85.7624
lradius 129.735
lwrist 7.85049
lhand 4.60003 35.6342
lfingers 7.12502
lthumb 29.9884 63.2236
rfemur -39.3672 7.94465 9.56534
rtibia 27.9423
rfoot -28.4614 -11.3694
rtoes -25.4058
lfemur 3.04593 14.9443 -23.2034
ltibia 33.0338
lfoot -23.2815 -6.90766
ltoes -1.45006
741
root 21.2401 15.4777 -19.647 181.35 -67.4249 -184.723
lowerback 15.6779 -1.28781 1.13935
upperback 9.37609 -2.33286 -0.538279
thorax 1.09983 -1.43753 -0.876666
lowerneck 14.0947 4.83783 7.4275
upperneck 2.216 7.0573 -10.7056
head -0.958922 3.75949 -4.75942
rclavicle -2.17669e-014 1.75924e-014
rhumerus -34.2656 11.2866 -88.6395
rradius 122.994
rwrist 14.8953
rhand 18.9216 -19.9483
rfingers 7.12502
rthumb 43.5292 -44.0045
lclavicle -2.17669e-014 1.75924e-014
lhumerus -40.1626 -1.95923 85.6465
lradius 129.803
lwrist 8.0673
lhand 4.67981 35.5446
lfingers 7.12502
lthumb 30.0645 63.1201
rfemur -38.4325 8.80717 8.98299
rtibia 27.1825
rfoot -28.4651 -11.4772
rtoes -25.5855
lfemur 4.37723 14.6581 -22.9599
ltibia 31.5294
lfoot -22.8312 -7.47418
ltoes -1.25653
742
root 21.1191 15.495 -19.7276 181.799 -68.1974 -185.165
lowerback 15.2472 -1.43396 1.23598
upperback 9.14734 -2.47288 -0.505292
thorax 1.07523 -1.48738 -0.884675
lowerneck 14.004 4.90068 7.4173
upperneck 2.49763 7.14595 -10.6869
head -0.853879 3.79489 -4.74601
rclavicle 4.03533e-014 -3.28989e-014
rhumerus -34.3952 11.3357 -88.6469
rradius 122.985
rwrist 14.8446
rhand 19.0027 -19.9644
rfingers 7.12502
rthumb 43.6049 -43.9931
lclavicle 4.03533e-014 -3.28989e-014
lhumerus -40.3347 -1.67158 85.5052
lradius 129.882
lwrist 8.29052
lhand 4.73143 35.4599
lfingers 7.12502
lthumb 30.1138 63.0265
rfemur -37.5507 9.53535 8.52625
rtibia 26.6133
rfoot -28.3405 -11.4518
rtoes -25.9864
lfemur 5.71031 14.3215 -22.7361
ltibia 29.9873
lfoot -22.3582 -7.98968
ltoes -1.14642
743
root 20.9969 15.5108 -19.8082 182.298 -68.9629 -185.643
lowerback 14.8088 -1.57892 1.33848
upperback 8.9147 -2.61288 -0.481454
thorax 1.05095 -1.53734 -0.906869
lowerneck 13.8773 4.96478 7.4202
upperneck 2.8024 7.23799 -10.6787
head -0.735439 3.83113 -4.73623
rclavicle 1.98288e-014 -1.63003e-014
rhumerus -34.5066 11.3978 -88.6638
rradius 122.978
rwrist 14.7863
rhand 19.0917 -19.9837
rfingers 7.12502
rthumb 43.688 -43.982
lclavicle 1.98288e-014 -1.63003e-014
lhumerus -40.5083 -1.36803 85.3428
lradius 129.968
lwrist 8.50698
lhand 4.74409 35.369
lfingers 7.12502
lthumb 30.1259 62.9334
rfemur -36.7111 10.1212 8.19288
rtibia 26.2307
rfoot -28.0755 -11.2868
rtoes -26.4819
lfemur 7.03411 13.931 -22.529
ltibia 28.4237
lfoot -21.8416 -8.47553
ltoes -1.0219
744
root 20.8742 15.5257 -19.889 182.883 -69.7306 -186.189
lowerback 14.3594 -1.71574 1.43912
upperback 8.67964 -2.74474 -0.471401
thorax 1.03052 -1.58352 -0.945003
lowerneck 13.7134 5.01986 7.44986
upperneck 3.11988 7.32195 -10.6755
head -0.607225 3.86285 -4.73048
rclavicle -3.70236e-014 2.00773e-014
rhumerus -34.6134 11.4438 -88.692
rradius 122.988
rwrist 14.7209
rhand 19.1779 -19.9949
rfingers 7.12502
rthumb 43.7685 -43.9636
lclavicle -3.70236e-014 2.00773e-014
lhumerus -40.6696 -1.08144 85.1601
lradius 130.053
lwrist 8.69538
lhand 4.72021 35.2676
lfingers 7.12502
lthumb 30.1031 62.8362
rfemur -35.909 10.5971 7.94377
rtibia 26.0245
rfoot -27.7309 -10.9534
rtoes -26.8671
lfemur 8.33178 13.4832 -22.3472
ltibia 26.8503
lfoot -21.2649 -8.93619
ltoes -0.861788
745
root 20.751 15.5405 -19.9706 183.564 -70.5075 -186.815
lowerback 13.9012 -1.84669 1.52236
upperback 8.44067 -2.87298 -0.46656
thorax 1.01199 -1.62896 -0.980629
lowerneck 13.5257 5.06716 7.49441
upperneck 3.43561 7.39735 -10.6792
head -0.475986 3.89033 -4.72816
rclavicle 1.11319e-014 1.15295e-014
rhumerus -34.7233 11.4854 -88.724
rradius 123.019
rwrist 14.6488
rhand 19.2498 -20.0049
rfingers 7.12502
rthumb 43.8356 -43.9488
lclavicle 1.11319e-014 1.15295e-014
lhumerus -40.8191 -0.80493 84.97
lradius 130.137
lwrist 8.84257
lhand 4.67743 35.1719
lfingers 7.12502
lthumb 30.0623 62.7479
rfemur -35.148 11.0535 7.71969
rtibia 25.9753
rfoot -27.3964 -10.4119
rtoes -26.9191
lfemur 9.60136 12.9783 -22.188
ltibia 25.2665
lfoot -20.6097 -9.37855
ltoes -0.644671
746
root 20.6281 15.5567 -20.0534 184.363 -71.2857 -187.541
lowerback 13.4374 -1.96364 1.5732
upperback 8.2002 -2.98862 -0.462852
thorax 0.997559 -1.6699 -1.00219
lowerneck 13.318 5.10379 7.54299
upperneck 3.73499 7.45847 -10.6839
head -0.347705 3.91095 -4.72604
rclavicle -1.05555e-013 2.62396e-014
rhumerus -34.8467 11.5127 -88.7543
rradius 123.081
rwrist 14.576
rhand 19.3024 -20.0024
rfingers 7.12502
rthumb 43.8846 -43.9281
lclavicle -1.05555e-013 2.62396e-014
lhumerus -40.9438 -0.548542 84.7835
lradius 130.217
lwrist 8.94685
lhand 4.62087 35.0891
lfingers 7.12502
lthumb 30.0083 62.6749
rfemur -34.4577 11.6149 7.44953
rtibia 26.0498
rfoot -27.1133 -9.76148
rtoes -26.5838
lfemur 10.8474 12.4367 -22.0489
ltibia 23.6587
lfoot -19.8631 -9.79439
ltoes -0.459397
747
root 20.5057 15.5763 -20.1374 185.319 -72.0474 -188.395
lowerback 12.9698 -2.07259 1.55609
upperback 7.94516 -3.10168 -0.441881
thorax 0.974946 -1.71262 -0.968921
lowerneck 13.1367 5.14857 7.54384
upperneck 3.98369 7.52247 -10.6919
head -0.239929 3.93407 -4.71916
rclavicle 4.35338e-014 -3.77691e-015
rhumerus -34.9997 11.5894 -88.7688
rradius 123.168
rwrist 14.4825
rhand 19.3119 -19.9981
rfingers 7.12502
rthumb 43.8935 -43.9206
lclavicle 4.35338e-014 -3.77691e-015
lhumerus -41.0633 -0.258105 84.627
lradius 130.295
lwrist 8.99901
lhand 4.57031 35.0209
lfingers 7.12502
lthumb 29.96 62.6154
rfemur -33.8955 12.3986 7.06326
rtibia 26.2126
rfoot -26.8813 -9.12235
rtoes -25.8801
lfemur 12.0638 11.8763 -21.9401
ltibia 22.0057
lfoot -19.0184 -10.1567
ltoes -0.468017
748
root 20.3847 15.6002 -20.2217 186.439 -72.7728 -189.389
lowerback 12.5134 -2.16478 1.48117
upperback 7.67998 -3.19936 -0.409624
thorax 0.940995 -1.75034 -0.89375
lowerneck 12.9959 5.19663 7.50146
upperneck 4.15847 7.58378 -10.6959
head -0.162248 3.95771 -4.7067
rclavicle 1.41137e-014 -9.54166e-015
rhumerus -35.1824 11.6903 -88.7739
rradius 123.279
rwrist 14.366
rhand 19.2703 -19.9786
rfingers 7.12502
rthumb 43.8547 -43.9155
lclavicle 1.41137e-014 -9.54166e-015
lhumerus -41.1669 0.0511042 84.5011
lradius 130.37
lwrist 9.01968
lhand 4.54551 34.9806
lfingers 7.12502
lthumb 29.9364 62.5794
rfemur -33.5019 13.4068 6.54977
rtibia 26.4348
rfoot -26.6294 -8.63389
rtoes -24.9984
lfemur 13.2616 11.303 -21.8684
ltibia 20.2868
lfoot -18.0561 -10.4563
ltoes -0.644062
749
root 20.2661 15.6286 -20.3055 187.652 -73.4405 -190.456
lowerback 12.0894 -2.22755 1.3868
upperback 7.4181 -3.26189 -0.373711
thorax 0.89696 -1.77215 -0.807547
lowerneck 12.869 5.23808 7.43957
upperneck 4.25613 7.63248 -10.6948
head -0.11164 3.97704 -4.69103
rclavicle -3.77691e-015 -8.74653e-015
rhumerus -35.3677 11.7747 -88.7765
rradius 123.397
rwrist 14.232
rhand 19.1746 -19.9326
rfingers 7.12502
rthumb 43.7654 -43.9024
lclavicle -3.77691e-015 -8.74653e-015
lhumerus -41.2275 0.345531 84.4022
lradius 130.438
lwrist 9.02111
lhand 4.54278 34.9568
lfingers 7.12502
lthumb 29.9338 62.556
rfemur -33.2887 14.5553 5.95769
rtibia 26.6994
rfoot -26.282 -8.32884
rtoes -23.9398
lfemur 14.4478 10.7327 -21.8165
ltibia 18.4969
lfoot -16.9807 -10.6666
ltoes -1.06753
750
root 20.1505 15.6611 -20.3876 188.881 -74.0247 -191.524
lowerback 11.7127 -2.25242 1.3086
upperback 7.17131 -3.27551 -0.342817
thorax 0.844878 -1.7702 -0.739865
lowerneck 12.7405 5.27106 7.37605
upperneck 4.27401 7.66836 -10.6855
head -0.0858814 3.99215 -4.67356
rclavicle -2.65378e-014 -2.38542e-015
rhumerus -35.5372 11.8237 -88.7838
rradius 123.514
rwrist 14.0776
rhand 19.0469 -19.8805
rfingers 7.12502
rthumb 43.6462 -43.8941
lclavicle -2.65378e-014 -2.38542e-015
lhumerus -41.2377 0.611383 84.3234
lradius 130.496
lwrist 9.01702
lhand 4.54461 34.9429
lfingers 7.12502
lthumb 29.9355 62.5419
rfemur -33.2303 15.6714 5.36978
rtibia 27.0015
rfoot -25.7966 -8.12975
rtoes -22.7716
lfemur 15.6214 10.1765 -21.7764
ltibia 16.6571
lfoot -15.8081 -10.7797
ltoes -1.68562
751
root 20.0384 15.6954 -20.4671 189.998 -74.5185 -192.484
lowerback 11.4018 -2.23258 1.29067
upperback 6.95947 -3.2287 -0.326147
thorax 0.792597 -1.7379 -0.72527
lowerneck 12.5739 5.28723 7.34669
upperneck 4.22774 7.6851 -10.6743
head -0.0737679 3.99963 -4.6603
rclavicle -1.32192e-014 5.1684e-015
rhumerus -35.6623 11.8019 -88.8012
rradius 123.621
rwrist 13.9182
rhand 18.9154 -19.8291
rfingers 7.12502
rthumb 43.5234 -43.8874
lclavicle -1.32192e-014 5.1684e-015
lhumerus -41.1825 0.819315 84.2522
lradius 130.543
lwrist 9.01836
lhand 4.5366 34.9241
lfingers 7.12502
lthumb 29.9279 62.5245
rfemur -33.2563 16.5287 4.91202
rtibia 27.347
rfoot -25.1425 -7.97512
rtoes -21.6278
lfemur 16.783 9.64515 -21.7222
ltibia 14.816
lfoot -14.5621 -10.8134
ltoes -2.35152
752
root 19.9299 15.7289 -20.5437 190.93 -74.9252 -193.276
lowerback 11.1615 -2.16933 1.3499
upperback 6.79471 -3.12263 -0.327454
thorax 0.748737 -1.67563 -0.776649
lowerneck 12.3582 5.2866 7.36686
upperneck 4.124 7.68436 -10.6696
head -0.0705315 4.00023 -4.65582
rclavicle -3.13086e-014 -3.18055e-015
rhumerus -35.7316 11.7086 -88.8245
rradius 123.71
rwrist 13.7612
rhand 18.806 -19.7815
rfingers 7.12502
rthumb 43.4212 -43.8769
lclavicle -3.13086e-014 -3.18055e-015
lhumerus -41.0684 0.96372 84.1839
lradius 130.581
lwrist 9.02625
lhand 4.49829 34.8994
lfingers 7.12502
lthumb 29.8913 62.5063
rfemur -33.2865 16.9684 4.67448
rtibia 27.7417
rfoot -24.3296 -7.80954
rtoes -20.5904
lfemur 17.9169 9.14791 -21.6422
ltibia 13.0437
lfoot -13.2956 -10.7802
ltoes -3.03112
